<svg width="65" height="65" fill="none" xmlns="http://www.w3.org/2000/svg"><rect width="65" height="65" rx="16" fill="#F16718"/><path fill-rule="evenodd" clip-rule="evenodd" d="M32 20.61a1 1 0 0 1-1-1V17a1 1 0 0 1 2 0v2.61a1 1 0 0 1-1 1zm8.761 3.629a1 1 0 0 1-.707-1.708l1.846-1.846a1 1 0 0 1 1.415 1.415l-1.846 1.845a1.003 1.003 0 0 1-.708.294zM44.391 33H47a1 1 0 0 0 0-2h-2.61a1 1 0 0 0 0 2zm-1.784 10.607a.992.992 0 0 1-.707-.294l-1.845-1.845a1 1 0 1 1 1.414-1.415l1.846 1.846a1 1 0 0 1-.708 1.708zm-21.92-.294a.997.997 0 0 0 1.415 0l1.845-1.845a1 1 0 0 0-1.415-1.415L20.687 41.9a1 1 0 0 0 0 1.414zM19.609 33H17a1 1 0 0 1 0-2h2.61a1 1 0 0 1 0 2zm2.923-9.055c.195.196.45.294.707.294a1 1 0 0 0 .708-1.708L22.1 20.685a1 1 0 0 0-1.414 1.415l1.845 1.845zM36 44v1.667A2.344 2.344 0 0 1 33.667 48h-3.334C29.213 48 28 47.147 28 45.28V44h8zm1.88-19.253c-2.187-1.774-5.067-2.467-7.88-1.867-3.533.733-6.4 3.613-7.133 7.147-.747 3.626.613 7.226 3.52 9.426.786.587 1.333 1.494 1.52 2.547v.013C27.933 42 27.973 42 28 42h8c.027 0 .04 0 .067.013V42c.186-1.013.786-1.947 1.706-2.667 2.254-1.786 3.56-4.453 3.56-7.333a9.296 9.296 0 0 0-3.453-7.253zm-.88 7.92c-.547 0-1-.454-1-1A3.665 3.665 0 0 0 32.333 28c-.546 0-1-.453-1-1 0-.547.454-1 1-1A5.68 5.68 0 0 1 38 31.667c0 .546-.453 1-1 1z" fill="#fff"/></svg>