<svg width="65" height="65" fill="none" xmlns="http://www.w3.org/2000/svg"><rect width="65" height="65" rx="16" fill="#F16718"/><path fill-rule="evenodd" clip-rule="evenodd" d="m34.947 32.93 5.975-5.999a1.653 1.653 0 0 0-.25-2.537l-7.597-5.112a1.661 1.661 0 0 0-1.705-.088c-.54.287-.887.848-.887 1.458v7.942l-3.95-3.993a1.641 1.641 0 0 0-2.326-.01 1.653 1.653 0 0 0-.01 2.336l5.953 6.002-5.953 6.002a1.653 1.653 0 0 0 .01 2.338 1.64 1.64 0 0 0 2.326-.01l3.95-3.994v7.941c0 .61.348 1.172.887 1.459a1.659 1.659 0 0 0 1.705-.09l7.596-5.11c.41-.276.675-.72.724-1.21a1.655 1.655 0 0 0-.474-1.328l-5.974-5.996zm-1.111-9.173 3.358 2.26-3.358 3.372v-5.632zm0 12.716v5.632l3.358-2.26-3.358-3.372z" fill="#fff"/></svg>