<svg width="65" height="65" fill="none" xmlns="http://www.w3.org/2000/svg"><rect width="65" height="65" rx="16" fill="#F16718"/><path fill-rule="evenodd" clip-rule="evenodd" d="M45.333 27.333h.322a2.336 2.336 0 0 1 2.333 2.334V37a2.336 2.336 0 0 1-2.333 2.333h-.322v.334a3.67 3.67 0 0 1-3.666 3.666h-22A3.67 3.67 0 0 1 16 39.667V27a3.67 3.67 0 0 1 3.667-3.667h22A3.67 3.67 0 0 1 45.333 27v.333zm-21 12a1 1 0 0 0 1-1v-10a1 1 0 0 0-1-1H21a1 1 0 0 0-1 1v10a1 1 0 0 0 1 1h3.333zm9-1a1 1 0 0 1-1 1H29a1 1 0 0 1-1-1v-10a1 1 0 0 1 1-1h3.333a1 1 0 0 1 1 1v10zm7 1a1 1 0 0 0 1-1v-10a1 1 0 0 0-1-1H37a1 1 0 0 0-1 1v10a1 1 0 0 0 1 1h3.333z" fill="#fff"/></svg>